<mxfile host="app.diagrams.net" agent="Mozilla/5.0 (Windows NT 10.0; Win64; x64) AppleWebKit/537.36 (KHTML, like Gecko) Chrome/132.0.0.0 Safari/537.36" version="26.0.11">
  <diagram id="C5RBs43oDa-KdzZeNtuy" name="Page-1">
    <mxGraphModel dx="3242" dy="840" grid="1" gridSize="10" guides="1" tooltips="1" connect="1" arrows="1" fold="1" page="1" pageScale="1" pageWidth="827" pageHeight="1169" math="0" shadow="0">
      <root>
        <mxCell id="WIyWlLk6GJQsqaUBKTNV-0" />
        <mxCell id="WIyWlLk6GJQsqaUBKTNV-1" parent="WIyWlLk6GJQsqaUBKTNV-0" />
        <mxCell id="wN080h6H465J3YaV4MYS-0" value="User" style="swimlane;fontStyle=2;align=center;verticalAlign=top;childLayout=stackLayout;horizontal=1;startSize=26;horizontalStack=0;resizeParent=1;resizeLast=0;collapsible=1;marginBottom=0;rounded=0;shadow=0;strokeWidth=1;" parent="WIyWlLk6GJQsqaUBKTNV-1" vertex="1">
          <mxGeometry x="-530" y="69" width="160" height="191" as="geometry">
            <mxRectangle x="230" y="140" width="160" height="26" as="alternateBounds" />
          </mxGeometry>
        </mxCell>
        <mxCell id="wN080h6H465J3YaV4MYS-1" value="-String username&#xa;-String password&#xa;-String email&#xa;-String role&#xa;" style="text;align=left;verticalAlign=top;spacingLeft=4;spacingRight=4;overflow=hidden;rotatable=0;points=[[0,0.5],[1,0.5]];portConstraint=eastwest;" parent="wN080h6H465J3YaV4MYS-0" vertex="1">
          <mxGeometry y="26" width="160" height="74" as="geometry" />
        </mxCell>
        <mxCell id="wN080h6H465J3YaV4MYS-2" value="" style="line;html=1;strokeWidth=1;align=left;verticalAlign=middle;spacingTop=-1;spacingLeft=3;spacingRight=3;rotatable=0;labelPosition=right;points=[];portConstraint=eastwest;" parent="wN080h6H465J3YaV4MYS-0" vertex="1">
          <mxGeometry y="100" width="160" height="8" as="geometry" />
        </mxCell>
        <mxCell id="wN080h6H465J3YaV4MYS-3" value="+login()&#xa;+logout()&#xa;+viewDashboard()&#xa;+searchCourses()&#xa;+register()" style="text;align=left;verticalAlign=top;spacingLeft=4;spacingRight=4;overflow=hidden;rotatable=0;points=[[0,0.5],[1,0.5]];portConstraint=eastwest;" parent="wN080h6H465J3YaV4MYS-0" vertex="1">
          <mxGeometry y="108" width="160" height="82" as="geometry" />
        </mxCell>
        <mxCell id="wN080h6H465J3YaV4MYS-4" value="Student" style="swimlane;fontStyle=0;align=center;verticalAlign=top;childLayout=stackLayout;horizontal=1;startSize=26;horizontalStack=0;resizeParent=1;resizeLast=0;collapsible=1;marginBottom=0;rounded=0;shadow=0;strokeWidth=1;" parent="WIyWlLk6GJQsqaUBKTNV-1" vertex="1">
          <mxGeometry x="-840" y="340" width="160" height="150" as="geometry">
            <mxRectangle x="130" y="380" width="160" height="26" as="alternateBounds" />
          </mxGeometry>
        </mxCell>
        <mxCell id="wN080h6H465J3YaV4MYS-5" value="." style="text;align=left;verticalAlign=top;spacingLeft=4;spacingRight=4;overflow=hidden;rotatable=0;points=[[0,0.5],[1,0.5]];portConstraint=eastwest;" parent="wN080h6H465J3YaV4MYS-4" vertex="1">
          <mxGeometry y="26" width="160" height="26" as="geometry" />
        </mxCell>
        <mxCell id="wN080h6H465J3YaV4MYS-6" value="" style="line;html=1;strokeWidth=1;align=left;verticalAlign=middle;spacingTop=-1;spacingLeft=3;spacingRight=3;rotatable=0;labelPosition=right;points=[];portConstraint=eastwest;" parent="wN080h6H465J3YaV4MYS-4" vertex="1">
          <mxGeometry y="52" width="160" height="8" as="geometry" />
        </mxCell>
        <mxCell id="wN080h6H465J3YaV4MYS-7" value="+viewCourses()&#xa;+enrollInCourse()&#xa;+addReview()&#xa;+showExerciseSolution()&#xa;+showTeacherStatistics()" style="text;align=left;verticalAlign=top;spacingLeft=4;spacingRight=4;overflow=hidden;rotatable=0;points=[[0,0.5],[1,0.5]];portConstraint=eastwest;" parent="wN080h6H465J3YaV4MYS-4" vertex="1">
          <mxGeometry y="60" width="160" height="90" as="geometry" />
        </mxCell>
        <mxCell id="wN080h6H465J3YaV4MYS-8" value="" style="endArrow=diamondThin;endSize=15;endFill=0;shadow=0;strokeWidth=1;rounded=0;curved=0;edgeStyle=elbowEdgeStyle;elbow=vertical;" parent="WIyWlLk6GJQsqaUBKTNV-1" source="wN080h6H465J3YaV4MYS-4" target="wN080h6H465J3YaV4MYS-0" edge="1">
          <mxGeometry width="160" relative="1" as="geometry">
            <mxPoint x="-550" y="153" as="sourcePoint" />
            <mxPoint x="-550" y="153" as="targetPoint" />
          </mxGeometry>
        </mxCell>
        <mxCell id="wN080h6H465J3YaV4MYS-9" value="Teacher" style="swimlane;fontStyle=0;align=center;verticalAlign=top;childLayout=stackLayout;horizontal=1;startSize=26;horizontalStack=0;resizeParent=1;resizeLast=0;collapsible=1;marginBottom=0;rounded=0;shadow=0;strokeWidth=1;" parent="WIyWlLk6GJQsqaUBKTNV-1" vertex="1">
          <mxGeometry x="-580" y="340" width="270" height="170" as="geometry">
            <mxRectangle x="340" y="380" width="170" height="26" as="alternateBounds" />
          </mxGeometry>
        </mxCell>
        <mxCell id="wN080h6H465J3YaV4MYS-10" value="." style="text;align=left;verticalAlign=top;spacingLeft=4;spacingRight=4;overflow=hidden;rotatable=0;points=[[0,0.5],[1,0.5]];portConstraint=eastwest;" parent="wN080h6H465J3YaV4MYS-9" vertex="1">
          <mxGeometry y="26" width="270" height="22" as="geometry" />
        </mxCell>
        <mxCell id="wN080h6H465J3YaV4MYS-11" value="" style="line;html=1;strokeWidth=1;align=left;verticalAlign=middle;spacingTop=-1;spacingLeft=3;spacingRight=3;rotatable=0;labelPosition=right;points=[];portConstraint=eastwest;" parent="wN080h6H465J3YaV4MYS-9" vertex="1">
          <mxGeometry y="48" width="270" height="8" as="geometry" />
        </mxCell>
        <mxCell id="wN080h6H465J3YaV4MYS-12" value="+viewCourses()&#xa;+createCourse()&#xa;+manageCourses()&#xa;+showChannelStatistics()&#xa;+addExercise()&#xa;+showReviews()&#xa;+addPlaylist()" style="text;align=left;verticalAlign=top;spacingLeft=4;spacingRight=4;overflow=hidden;rotatable=0;points=[[0,0.5],[1,0.5]];portConstraint=eastwest;" parent="wN080h6H465J3YaV4MYS-9" vertex="1">
          <mxGeometry y="56" width="270" height="114" as="geometry" />
        </mxCell>
        <mxCell id="wN080h6H465J3YaV4MYS-13" value="" style="endArrow=diamondThin;endSize=15;endFill=0;shadow=0;strokeWidth=1;rounded=0;curved=0;edgeStyle=elbowEdgeStyle;elbow=vertical;" parent="WIyWlLk6GJQsqaUBKTNV-1" source="wN080h6H465J3YaV4MYS-9" target="wN080h6H465J3YaV4MYS-0" edge="1">
          <mxGeometry width="160" relative="1" as="geometry">
            <mxPoint x="-540" y="323" as="sourcePoint" />
            <mxPoint x="-440" y="221" as="targetPoint" />
          </mxGeometry>
        </mxCell>
        <mxCell id="wN080h6H465J3YaV4MYS-14" value="Course" style="swimlane;fontStyle=0;align=center;verticalAlign=top;childLayout=stackLayout;horizontal=1;startSize=26;horizontalStack=0;resizeParent=1;resizeLast=0;collapsible=1;marginBottom=0;rounded=0;shadow=0;strokeWidth=1;" parent="WIyWlLk6GJQsqaUBKTNV-1" vertex="1">
          <mxGeometry x="-732" y="560" width="160" height="160" as="geometry">
            <mxRectangle x="550" y="140" width="160" height="26" as="alternateBounds" />
          </mxGeometry>
        </mxCell>
        <mxCell id="wN080h6H465J3YaV4MYS-15" value="-String courseName&#xa;-String courseDescription&#xa;-String category" style="text;align=left;verticalAlign=top;spacingLeft=4;spacingRight=4;overflow=hidden;rotatable=0;points=[[0,0.5],[1,0.5]];portConstraint=eastwest;strokeColor=default;" parent="wN080h6H465J3YaV4MYS-14" vertex="1">
          <mxGeometry y="26" width="160" height="54" as="geometry" />
        </mxCell>
        <mxCell id="wN080h6H465J3YaV4MYS-16" value="" style="line;html=1;strokeWidth=1;align=left;verticalAlign=middle;spacingTop=-1;spacingLeft=3;spacingRight=3;rotatable=0;labelPosition=right;points=[];portConstraint=eastwest;" parent="wN080h6H465J3YaV4MYS-14" vertex="1">
          <mxGeometry y="80" width="160" height="8" as="geometry" />
        </mxCell>
        <mxCell id="wN080h6H465J3YaV4MYS-17" value=" +viewCourse()&#xa; +registerCourse()&#xa;+searchByCategory()" style="text;align=left;verticalAlign=top;spacingLeft=4;spacingRight=4;overflow=hidden;rotatable=0;points=[[0,0.5],[1,0.5]];portConstraint=eastwest;" parent="wN080h6H465J3YaV4MYS-14" vertex="1">
          <mxGeometry y="88" width="160" height="52" as="geometry" />
        </mxCell>
        <mxCell id="wN080h6H465J3YaV4MYS-18" value="" style="endArrow=diamondThin;shadow=0;strokeWidth=1;rounded=0;curved=0;endFill=0;edgeStyle=elbowEdgeStyle;elbow=vertical;exitX=0.5;exitY=1;exitDx=0;exitDy=0;entryX=0.25;entryY=0;entryDx=0;entryDy=0;jumpSize=0;sourcePerimeterSpacing=0;startSize=4;endSize=15;" parent="WIyWlLk6GJQsqaUBKTNV-1" source="wN080h6H465J3YaV4MYS-4" target="wN080h6H465J3YaV4MYS-14" edge="1">
          <mxGeometry x="0.5" y="41" relative="1" as="geometry">
            <mxPoint x="-780" y="600" as="sourcePoint" />
            <mxPoint x="-260" y="342" as="targetPoint" />
            <mxPoint x="-40" y="32" as="offset" />
            <Array as="points">
              <mxPoint x="-720" y="530" />
            </Array>
          </mxGeometry>
        </mxCell>
        <mxCell id="wN080h6H465J3YaV4MYS-19" value="Admin" style="swimlane;fontStyle=0;align=center;verticalAlign=top;childLayout=stackLayout;horizontal=1;startSize=26;horizontalStack=0;resizeParent=1;resizeLast=0;collapsible=1;marginBottom=0;rounded=0;shadow=0;strokeWidth=1;" parent="WIyWlLk6GJQsqaUBKTNV-1" vertex="1">
          <mxGeometry x="-189" y="340" width="260" height="110" as="geometry">
            <mxRectangle x="340" y="380" width="170" height="26" as="alternateBounds" />
          </mxGeometry>
        </mxCell>
        <mxCell id="wN080h6H465J3YaV4MYS-20" value="." style="text;align=left;verticalAlign=top;spacingLeft=4;spacingRight=4;overflow=hidden;rotatable=0;points=[[0,0.5],[1,0.5]];portConstraint=eastwest;" parent="wN080h6H465J3YaV4MYS-19" vertex="1">
          <mxGeometry y="26" width="260" height="26" as="geometry" />
        </mxCell>
        <mxCell id="wN080h6H465J3YaV4MYS-21" value="" style="line;html=1;strokeWidth=1;align=left;verticalAlign=middle;spacingTop=-1;spacingLeft=3;spacingRight=3;rotatable=0;labelPosition=right;points=[];portConstraint=eastwest;" parent="wN080h6H465J3YaV4MYS-19" vertex="1">
          <mxGeometry y="52" width="260" height="8" as="geometry" />
        </mxCell>
        <mxCell id="wN080h6H465J3YaV4MYS-22" value="+manageUsers()&#xa;+manageCourses()&#xa;+viewStatistics()" style="text;align=left;verticalAlign=top;spacingLeft=4;spacingRight=4;overflow=hidden;rotatable=0;points=[[0,0.5],[1,0.5]];portConstraint=eastwest;" parent="wN080h6H465J3YaV4MYS-19" vertex="1">
          <mxGeometry y="60" width="260" height="50" as="geometry" />
        </mxCell>
        <mxCell id="wN080h6H465J3YaV4MYS-23" value="" style="endArrow=diamondThin;endSize=15;endFill=0;shadow=0;strokeWidth=1;rounded=0;curved=0;edgeStyle=elbowEdgeStyle;elbow=vertical;" parent="WIyWlLk6GJQsqaUBKTNV-1" source="wN080h6H465J3YaV4MYS-19" edge="1">
          <mxGeometry width="160" relative="1" as="geometry">
            <mxPoint x="-530" y="333" as="sourcePoint" />
            <mxPoint x="-450" y="260" as="targetPoint" />
          </mxGeometry>
        </mxCell>
        <mxCell id="wN080h6H465J3YaV4MYS-24" value="" style="endArrow=diamondThin;shadow=0;strokeWidth=1;rounded=0;curved=0;endFill=1;edgeStyle=elbowEdgeStyle;elbow=vertical;exitX=0.5;exitY=1;exitDx=0;exitDy=0;entryX=0.75;entryY=0;entryDx=0;entryDy=0;endSize=15;" parent="WIyWlLk6GJQsqaUBKTNV-1" source="wN080h6H465J3YaV4MYS-9" target="wN080h6H465J3YaV4MYS-14" edge="1">
          <mxGeometry x="0.5" y="41" relative="1" as="geometry">
            <mxPoint x="-446.0799999999997" y="572.676" as="sourcePoint" />
            <mxPoint x="-640" y="820" as="targetPoint" />
            <mxPoint x="-40" y="32" as="offset" />
            <Array as="points">
              <mxPoint x="-530" y="540" />
              <mxPoint x="-570" y="700" />
            </Array>
          </mxGeometry>
        </mxCell>
        <mxCell id="wN080h6H465J3YaV4MYS-25" value="Tag" style="swimlane;fontStyle=0;align=center;verticalAlign=top;childLayout=stackLayout;horizontal=1;startSize=26;horizontalStack=0;resizeParent=1;resizeLast=0;collapsible=1;marginBottom=0;rounded=0;shadow=0;strokeWidth=1;" parent="WIyWlLk6GJQsqaUBKTNV-1" vertex="1">
          <mxGeometry x="-920" y="772" width="160" height="120" as="geometry">
            <mxRectangle x="550" y="140" width="160" height="26" as="alternateBounds" />
          </mxGeometry>
        </mxCell>
        <mxCell id="wN080h6H465J3YaV4MYS-26" value="-String tagName" style="text;align=left;verticalAlign=top;spacingLeft=4;spacingRight=4;overflow=hidden;rotatable=0;points=[[0,0.5],[1,0.5]];portConstraint=eastwest;" parent="wN080h6H465J3YaV4MYS-25" vertex="1">
          <mxGeometry y="26" width="160" height="24" as="geometry" />
        </mxCell>
        <mxCell id="wN080h6H465J3YaV4MYS-27" value="" style="line;html=1;strokeWidth=1;align=left;verticalAlign=middle;spacingTop=-1;spacingLeft=3;spacingRight=3;rotatable=0;labelPosition=right;points=[];portConstraint=eastwest;" parent="wN080h6H465J3YaV4MYS-25" vertex="1">
          <mxGeometry y="50" width="160" height="8" as="geometry" />
        </mxCell>
        <mxCell id="wN080h6H465J3YaV4MYS-28" value=" +addTag()&#xa; +removeTag()&#xa; +editTag()" style="text;align=left;verticalAlign=top;spacingLeft=4;spacingRight=4;overflow=hidden;rotatable=0;points=[[0,0.5],[1,0.5]];portConstraint=eastwest;" parent="wN080h6H465J3YaV4MYS-25" vertex="1">
          <mxGeometry y="58" width="160" height="52" as="geometry" />
        </mxCell>
        <mxCell id="wN080h6H465J3YaV4MYS-29" value="Category" style="swimlane;fontStyle=0;align=center;verticalAlign=top;childLayout=stackLayout;horizontal=1;startSize=26;horizontalStack=0;resizeParent=1;resizeLast=0;collapsible=1;marginBottom=0;rounded=0;shadow=0;strokeWidth=1;" parent="WIyWlLk6GJQsqaUBKTNV-1" vertex="1">
          <mxGeometry x="-547" y="770" width="160" height="142" as="geometry">
            <mxRectangle x="550" y="140" width="160" height="26" as="alternateBounds" />
          </mxGeometry>
        </mxCell>
        <mxCell id="wN080h6H465J3YaV4MYS-30" value=" -String categoryName&#xa; -String categoryDescription" style="text;align=left;verticalAlign=top;spacingLeft=4;spacingRight=4;overflow=hidden;rotatable=0;points=[[0,0.5],[1,0.5]];portConstraint=eastwest;" parent="wN080h6H465J3YaV4MYS-29" vertex="1">
          <mxGeometry y="26" width="160" height="44" as="geometry" />
        </mxCell>
        <mxCell id="wN080h6H465J3YaV4MYS-31" value="" style="line;html=1;strokeWidth=1;align=left;verticalAlign=middle;spacingTop=-1;spacingLeft=3;spacingRight=3;rotatable=0;labelPosition=right;points=[];portConstraint=eastwest;" parent="wN080h6H465J3YaV4MYS-29" vertex="1">
          <mxGeometry y="70" width="160" height="8" as="geometry" />
        </mxCell>
        <mxCell id="wN080h6H465J3YaV4MYS-32" value=" +addCategory()&#xa; +editCategory()&#xa; +deleteCategory()" style="text;align=left;verticalAlign=top;spacingLeft=4;spacingRight=4;overflow=hidden;rotatable=0;points=[[0,0.5],[1,0.5]];portConstraint=eastwest;strokeColor=default;" parent="wN080h6H465J3YaV4MYS-29" vertex="1">
          <mxGeometry y="78" width="160" height="54" as="geometry" />
        </mxCell>
        <mxCell id="wN080h6H465J3YaV4MYS-33" style="edgeStyle=orthogonalEdgeStyle;rounded=0;orthogonalLoop=1;jettySize=auto;html=1;entryX=0.5;entryY=1;entryDx=0;entryDy=0;" parent="WIyWlLk6GJQsqaUBKTNV-1" source="wN080h6H465J3YaV4MYS-25" target="wN080h6H465J3YaV4MYS-14" edge="1">
          <mxGeometry relative="1" as="geometry">
            <mxPoint x="-662" y="880" as="targetPoint" />
            <Array as="points">
              <mxPoint x="-832" y="740" />
              <mxPoint x="-652" y="740" />
            </Array>
          </mxGeometry>
        </mxCell>
        <mxCell id="wN080h6H465J3YaV4MYS-34" style="edgeStyle=orthogonalEdgeStyle;rounded=0;orthogonalLoop=1;jettySize=auto;html=1;exitX=0.5;exitY=0;exitDx=0;exitDy=0;entryX=0.5;entryY=1;entryDx=0;entryDy=0;" parent="WIyWlLk6GJQsqaUBKTNV-1" source="wN080h6H465J3YaV4MYS-29" target="wN080h6H465J3YaV4MYS-14" edge="1">
          <mxGeometry relative="1" as="geometry">
            <mxPoint x="-472" y="1000" as="sourcePoint" />
            <mxPoint x="-662" y="840" as="targetPoint" />
            <Array as="points">
              <mxPoint x="-467" y="740" />
              <mxPoint x="-652" y="740" />
            </Array>
          </mxGeometry>
        </mxCell>
        <mxCell id="wN080h6H465J3YaV4MYS-35" value="&lt;font style=&quot;font-size: 18px;&quot;&gt;*..*&lt;/font&gt;" style="text;html=1;align=center;verticalAlign=middle;resizable=0;points=[];autosize=1;strokeColor=none;fillColor=none;strokeWidth=9;perimeterSpacing=6;" parent="WIyWlLk6GJQsqaUBKTNV-1" vertex="1">
          <mxGeometry x="-832" y="710" width="50" height="40" as="geometry" />
        </mxCell>
        <mxCell id="wN080h6H465J3YaV4MYS-36" value="&lt;font style=&quot;font-size: 18px;&quot;&gt;*..1&lt;/font&gt;" style="text;html=1;align=center;verticalAlign=middle;resizable=0;points=[];autosize=1;strokeColor=none;fillColor=none;strokeWidth=9;perimeterSpacing=6;" parent="WIyWlLk6GJQsqaUBKTNV-1" vertex="1">
          <mxGeometry x="-535" y="710" width="50" height="40" as="geometry" />
        </mxCell>
        <mxCell id="wN080h6H465J3YaV4MYS-37" value="&lt;font style=&quot;font-size: 18px;&quot;&gt;*..*&lt;/font&gt;" style="text;html=1;align=center;verticalAlign=middle;resizable=0;points=[];autosize=1;strokeColor=none;fillColor=none;strokeWidth=9;perimeterSpacing=6;" parent="WIyWlLk6GJQsqaUBKTNV-1" vertex="1">
          <mxGeometry x="-760" y="490" width="50" height="40" as="geometry" />
        </mxCell>
        <mxCell id="wN080h6H465J3YaV4MYS-38" value="&lt;font style=&quot;font-size: 18px;&quot;&gt;*..1&lt;/font&gt;" style="text;html=1;align=center;verticalAlign=middle;resizable=0;points=[];autosize=1;strokeColor=none;fillColor=none;strokeWidth=9;perimeterSpacing=6;" parent="WIyWlLk6GJQsqaUBKTNV-1" vertex="1">
          <mxGeometry x="-550" y="510" width="50" height="40" as="geometry" />
        </mxCell>
        <mxCell id="wN080h6H465J3YaV4MYS-39" value="Exercise" style="swimlane;fontStyle=0;align=center;verticalAlign=top;childLayout=stackLayout;horizontal=1;startSize=26;horizontalStack=0;resizeParent=1;resizeLast=0;collapsible=1;marginBottom=0;rounded=0;shadow=0;strokeWidth=1;" parent="WIyWlLk6GJQsqaUBKTNV-1" vertex="1">
          <mxGeometry x="-262" y="770" width="160" height="122" as="geometry">
            <mxRectangle x="550" y="140" width="160" height="26" as="alternateBounds" />
          </mxGeometry>
        </mxCell>
        <mxCell id="wN080h6H465J3YaV4MYS-40" value="-String exerciseName&#xa; -String exerciseContent" style="text;align=left;verticalAlign=top;spacingLeft=4;spacingRight=4;overflow=hidden;rotatable=0;points=[[0,0.5],[1,0.5]];portConstraint=eastwest;" parent="wN080h6H465J3YaV4MYS-39" vertex="1">
          <mxGeometry y="26" width="160" height="34" as="geometry" />
        </mxCell>
        <mxCell id="wN080h6H465J3YaV4MYS-41" value="" style="line;html=1;strokeWidth=1;align=left;verticalAlign=middle;spacingTop=-1;spacingLeft=3;spacingRight=3;rotatable=0;labelPosition=right;points=[];portConstraint=eastwest;" parent="wN080h6H465J3YaV4MYS-39" vertex="1">
          <mxGeometry y="60" width="160" height="8" as="geometry" />
        </mxCell>
        <mxCell id="wN080h6H465J3YaV4MYS-42" value="+createExercise()&#xa; +editExercise()&#xa; +deleteExercise()" style="text;align=left;verticalAlign=top;spacingLeft=4;spacingRight=4;overflow=hidden;rotatable=0;points=[[0,0.5],[1,0.5]];portConstraint=eastwest;strokeColor=default;" parent="wN080h6H465J3YaV4MYS-39" vertex="1">
          <mxGeometry y="68" width="160" height="54" as="geometry" />
        </mxCell>
        <mxCell id="wN080h6H465J3YaV4MYS-43" style="edgeStyle=orthogonalEdgeStyle;rounded=0;orthogonalLoop=1;jettySize=auto;html=1;exitX=0.5;exitY=0;exitDx=0;exitDy=0;" parent="WIyWlLk6GJQsqaUBKTNV-1" source="wN080h6H465J3YaV4MYS-39" edge="1">
          <mxGeometry relative="1" as="geometry">
            <mxPoint x="-182" y="1000" as="sourcePoint" />
            <mxPoint x="-652" y="720" as="targetPoint" />
            <Array as="points">
              <mxPoint x="-180" y="740" />
              <mxPoint x="-652" y="740" />
            </Array>
          </mxGeometry>
        </mxCell>
        <mxCell id="wN080h6H465J3YaV4MYS-44" value="&lt;font style=&quot;font-size: 18px;&quot;&gt;1..*&lt;/font&gt;" style="text;html=1;align=center;verticalAlign=middle;resizable=0;points=[];autosize=1;strokeColor=none;fillColor=none;strokeWidth=9;perimeterSpacing=6;" parent="WIyWlLk6GJQsqaUBKTNV-1" vertex="1">
          <mxGeometry x="-232" y="710" width="50" height="40" as="geometry" />
        </mxCell>
      </root>
    </mxGraphModel>
  </diagram>
</mxfile>
